<?xml version="1.0" encoding="utf-8"?>
<!-- Generator: Adobe Illustrator 19.1.0, SVG Export Plug-In . SVG Version: 6.00 Build 0)  -->
<!DOCTYPE svg PUBLIC "-//W3C//DTD SVG 1.1//EN" "http://www.w3.org/Graphics/SVG/1.1/DTD/svg11.dtd">
<svg version="1.1" id="Layer_1" xmlns="http://www.w3.org/2000/svg" xmlns:xlink="http://www.w3.org/1999/xlink" x="0px" y="0px"
	 width="54px" height="210px" viewBox="0 0 54 210" style="enable-background:new 0 0 54 210;" xml:space="preserve">
<style type="text/css">
	.st0{fill:none;stroke:#231F20;stroke-width:1.2075;stroke-linejoin:bevel;stroke-miterlimit:10;}
	.st1{fill:none;stroke:#231F20;stroke-width:0.6037;stroke-miterlimit:10;}
	.st2{fill:none;stroke:#231F20;stroke-width:0.6037;stroke-linejoin:bevel;stroke-miterlimit:10;}
	.st3{fill-rule:evenodd;clip-rule:evenodd;fill:#231F20;}
	
		.st4{fill-rule:evenodd;clip-rule:evenodd;fill:#231F20;stroke:#231F20;stroke-width:1.0704;stroke-linejoin:bevel;stroke-miterlimit:10;}
	.st5{fill-rule:evenodd;clip-rule:evenodd;fill:#FFFFFF;stroke:#231F20;stroke-width:1.2075;stroke-miterlimit:10;}
	.st6{fill-rule:evenodd;clip-rule:evenodd;fill:none;stroke:#231F20;stroke-width:1.2075;stroke-miterlimit:10;}
	.st7{fill:#231F20;}
	.st8{fill:none;stroke:#231F20;stroke-width:1.2075;stroke-miterlimit:10;}
	.st9{fill:#FFFFFF;stroke:#231F20;stroke-width:1.2075;stroke-linejoin:bevel;stroke-miterlimit:10;}
	.st10{fill:#231F20;stroke:#231F20;stroke-width:1.2075;stroke-linejoin:bevel;stroke-miterlimit:10;}
</style>
<g>
	<g>
		<polyline class="st0" points="27,4 18.6,25.3 22.1,38.4 		"/>
	</g>
	<g>
		<polyline class="st0" points="27,4 35.4,25.3 31.9,38.4 		"/>
	</g>
	<line class="st1" x1="27" y1="4" x2="27" y2="25.3"/>
	<g>
		<rect x="20.3" y="38" class="st2" width="13.5" height="7.1"/>
		<rect x="20.3" y="38" class="st3" width="13.5" height="7.1"/>
	</g>
	<g>
		<circle class="st3" cx="27" cy="25.3" r="1.3"/>
	</g>
</g>
<g>
	<path class="st4" d="M40.1,53L40.1,53L28.6,68.4l2.3,1.7L40.6,57C41.6,55.7,41.3,54,40.1,53z"/>
	<rect x="26" y="68.6" transform="matrix(0.8021 0.5972 -0.5972 0.8021 48.6415 -2.0613)" class="st5" width="2.9" height="7.4"/>
	<path class="st6" d="M26.4,76.2c0,0,0.1,6.4-5,7.8c-5.1,1.5-8.6-0.6-8.6-0.6s2.8,1.6,5.1-1.5s-0.3-6,6.2-7.5"/>
</g>
<g>
	<path class="st7" d="M39.4,109.1c1-1.9-2.1-6.4-5.7-10c-3.6-3.6-8.1-6.8-10-5.7l-15,14.8l0,0c-0.1,0.1-0.2,0.1-0.3,0.2
		c-1.7,1.7,1.8,6.6,5.6,10.5c3.9,3.9,8.8,7.3,10.5,5.6c0.1-0.1,0.2-0.2,0.2-0.3l0,0L39.4,109.1z M32.8,99.9c4.6,4.6,6,8.1,5.5,8.6
		c-0.5,0.5-4.1-0.9-8.6-5.5s-6-8.1-5.5-8.6C24.7,93.9,28.3,95.4,32.8,99.9z M23.7,123.7c-0.5,0.5-4.1-1-8.7-5.6s-6.2-8.2-5.6-8.7
		C9.3,109.2,23,95.4,23,95.4c0.4,2.2,3,5.7,5.9,8.5s6.3,5.4,8.5,5.9C37.3,109.8,23.7,123.6,23.7,123.7z"/>
	<path class="st8" d="M26.3,101.2c0.3-0.3,0.5-0.6,0.8-0.9c0.3-0.3,0.6-0.6,0.8-0.9c0.7-0.7,1.4-1.3,2.1-1.9c0.3-0.3,0.6-0.5,1-0.8
		c3.2-2.4,6.3-3.4,7.5-2.1c1.2,1.2,0.2,4.3-2.2,7.5c-0.2,0.3-0.5,0.7-0.8,1l0,0"/>
	<path class="st8" d="M32.9,105.9c-0.3,0.3-0.6,0.6-0.9,0.8"/>
	<g>
		<path class="st7" d="M42.3,121.4c-0.6,0.2-1.3-0.2-1.7-0.7c-0.4-0.5-0.6-1.2-0.7-1.8c-0.2-1-0.5-2-0.7-3c-0.4,0.9-0.9,1.7-1,2.7
			c-0.2,1,0,2-0.3,3c-0.3,1-1.4,1.8-2.3,1.3c-0.7-0.4-0.7-1.4-0.6-2.2c0.4-2,1.4-3.8,2-5.7c0.7-1.9,1-4.1,0-5.9
			c-0.9-1.7-2.8-2.6-4.6-3.4l5.7,0.7c0.8,1,1.4,2.2,1.7,3.5c0.6,0.4,1.2,0.8,1.8,1.3c0.9,0.9,1.5,2.4,0.8,3.4c-0.3,0.4-0.7,0.7-1,1
			c-0.3,0.4-0.5,0.9-0.3,1.3c0.1,0.3,0.5,0.5,0.8,0.7c0.7,0.4,1.4,1.1,1.6,1.9C43.6,120.2,43.1,121.2,42.3,121.4z"/>
		<g>
			<path class="st7" d="M42.3,121.1c-2.1,0-2.5-3.9-2.9-5.3c-0.1-0.2-0.4-0.3-0.6-0.1c-0.4,0.8-0.8,1.6-1,2.4
				c-0.1,0.4-0.1,0.8-0.2,1.2c0,0.3,0,0.5,0,0.8c-0.9,0.4-1.7,0.8-2.6,1.1c-0.7-0.5,2.4-7.1,2.6-8.1c0.7-4.1-1.8-6.2-5.3-7.7
				c-0.1,0.2-0.1,0.4-0.2,0.6c1.1,0.1,2.2,0.3,3.3,0.4c0.6,0.1,1.4,0,2,0.3c1.1,0.5,1.1,2,1.8,2.9c0.4,0.6,0.7,0.8,1.4,1.4
				c1.3,1.2,1.9,2.1,0.9,3.9c-0.2,0.3-0.5,0.5-0.7,0.9c-0.2,0.4-0.4,0.8-0.2,1.2c0.1,0.2,0.3,0.3,0.4,0.5c0,0,0,0,0.1,0
				c1.2,0.6,1.5,1.9,1,3.6c-0.3,0.2,0,0.7,0.3,0.5c0.9-0.5,1.4-1.2,1.2-2.3c-0.2-0.9-0.8-1.1-1.2-1.8c-0.9-0.4-1-1.2-0.4-2.3
				c0.2-0.2,0.4-0.4,0.5-0.6c0.2-0.8,0.4-0.5,0.4-1.3c0-1.1-0.7-2-1.5-2.7c-1.3-1.2-1.7-2.5-2.7-3.9c-0.6-0.9-0.4-0.6-1-0.8
				c-1.6-0.6-3.7-0.5-5.4-0.7c-0.3,0-0.4,0.4-0.2,0.6c1.6,0.7,3.7,1.6,4.5,3.3c0.9,2,0.5,4.1-0.2,6c-0.6,1.7-2.9,5.3-1.7,7.3
				c0.6,0.9,1.6,1,2.5,0.3c0.6-0.5,0.8-1.2,1-1.9c0.4-1.8,0.3-3.1,1.2-4.9c-0.2,0-0.4,0-0.6-0.1c0.5,2.1,0.7,5.7,3.5,5.8
				C42.7,121.7,42.7,121.1,42.3,121.1z"/>
		</g>
	</g>
</g>
<g>
	<rect x="15.9" y="142.2" class="st6" width="22.1" height="22.1"/>
	<line class="st8" x1="15.9" y1="137.7" x2="15.9" y2="169"/>
	<line class="st8" x1="27" y1="137.7" x2="27" y2="169"/>
	<line class="st8" x1="38.1" y1="137.7" x2="38.1" y2="169"/>
	<line class="st8" x1="42.7" y1="142.2" x2="11.3" y2="142.2"/>
	<line class="st8" x1="42.7" y1="164.4" x2="11.3" y2="164.4"/>
</g>
<g>
	<rect x="19.9" y="181.2" class="st9" width="19.7" height="19.7"/>
	<rect x="16.6" y="183.6" class="st10" width="19.7" height="19.7"/>
	<rect x="14.4" y="186.3" class="st9" width="19.7" height="19.7"/>
</g>
</svg>
