<svg xmlns="http://www.w3.org/2000/svg" width="54" height="210" viewBox="0 0 54 210"><style type="text/css">.st0{fill:none;stroke:#231F20;stroke-width:1.2075;stroke-linejoin:bevel;stroke-miterlimit:10;} .st1{fill:none;stroke:#231F20;stroke-width:0.6037;stroke-miterlimit:10;} .st2{fill:none;stroke:#231F20;stroke-width:0.6037;stroke-linejoin:bevel;stroke-miterlimit:10;} .st3{fill-rule:evenodd;clip-rule:evenodd;fill:#231F20;} .st4{fill-rule:evenodd;clip-rule:evenodd;fill:#231F20;stroke:#231F20;stroke-width:1.0704;stroke-linejoin:bevel;stroke-miterlimit:10;} .st5{fill-rule:evenodd;clip-rule:evenodd;fill:#FFFFFF;stroke:#231F20;stroke-width:1.2075;stroke-miterlimit:10;} .st6{fill-rule:evenodd;clip-rule:evenodd;fill:none;stroke:#231F20;stroke-width:1.2075;stroke-miterlimit:10;} .st7{fill:#231F20;} .st8{fill:none;stroke:#231F20;stroke-width:1.2075;stroke-miterlimit:10;} .st9{fill:#FFFFFF;stroke:#231F20;stroke-width:1.2075;stroke-linejoin:bevel;stroke-miterlimit:10;} .st10{fill:#231F20;stroke:#231F20;stroke-width:1.2075;stroke-linejoin:bevel;stroke-miterlimit:10;}</style><path class="st0" d="M27 4l-8.4 21.3 3.5 13.1M27 4l8.4 21.3-3.5 13.1"/><path class="st1" d="M27 4v21.3"/><path class="st2" d="M20.3 38h13.5v7.1h-13.5z"/><path class="st3" d="M20.3 38h13.5v7.1h-13.5z"/><circle class="st3" cx="27" cy="25.3" r="1.3"/><path class="st4" d="M40.1 53l-11.5 15.4 2.3 1.7 9.7-13.1c1-1.3.7-3-.5-4z"/><path class="st5" d="M28.528 68.49l2.326 1.732-4.419 5.936-2.326-1.732z"/><path class="st6" d="M26.4 76.2s.1 6.4-5 7.8c-5.1 1.5-8.6-.6-8.6-.6s2.8 1.6 5.1-1.5-.3-6 6.2-7.5"/><path class="st7" d="M39.4 109.1c1-1.9-2.1-6.4-5.7-10-3.6-3.6-8.1-6.8-10-5.7l-15 14.8-.3.2c-1.7 1.7 1.8 6.6 5.6 10.5 3.9 3.9 8.8 7.3 10.5 5.6.1-.1.2-.2.2-.3l14.7-15.1zm-6.6-9.2c4.6 4.6 6 8.1 5.5 8.6s-4.1-.9-8.6-5.5-6-8.1-5.5-8.6 4.1 1 8.6 5.5zm-9.1 23.8c-.5.5-4.1-1-8.7-5.6s-6.2-8.2-5.6-8.7c-.1-.2 13.6-14 13.6-14 .4 2.2 3 5.7 5.9 8.5s6.3 5.4 8.5 5.9c-.1 0-13.7 13.8-13.7 13.9z"/><path class="st8" d="M26.3 101.2l.8-.9c.3-.3.6-.6.8-.9.7-.7 1.4-1.3 2.1-1.9.3-.3.6-.5 1-.8 3.2-2.4 6.3-3.4 7.5-2.1 1.2 1.2.2 4.3-2.2 7.5-.2.3-.5.7-.8 1M32.9 105.9c-.3.3-.6.6-.9.8"/><path class="st7" d="M42.3 121.4c-.6.2-1.3-.2-1.7-.7-.4-.5-.6-1.2-.7-1.8l-.7-3c-.4.9-.9 1.7-1 2.7-.2 1 0 2-.3 3s-1.4 1.8-2.3 1.3c-.7-.4-.7-1.4-.6-2.2.4-2 1.4-3.8 2-5.7.7-1.9 1-4.1 0-5.9-.9-1.7-2.8-2.6-4.6-3.4l5.7.7c.8 1 1.4 2.2 1.7 3.5.6.4 1.2.8 1.8 1.3.9.9 1.5 2.4.8 3.4-.3.4-.7.7-1 1-.3.4-.5.9-.3 1.3.1.3.5.5.8.7.7.4 1.4 1.1 1.6 1.9.1.7-.4 1.7-1.2 1.9zM42.3 121.1c-2.1 0-2.5-3.9-2.9-5.3-.1-.2-.4-.3-.6-.1-.4.8-.8 1.6-1 2.4l-.2 1.2v.8c-.9.4-1.7.8-2.6 1.1-.7-.5 2.4-7.1 2.6-8.1.7-4.1-1.8-6.2-5.3-7.7l-.2.6 3.3.4c.6.1 1.4 0 2 .3 1.1.5 1.1 2 1.8 2.9.4.6.7.8 1.4 1.4 1.3 1.2 1.9 2.1.9 3.9-.2.3-.5.5-.7.9-.2.4-.4.8-.2 1.2l.4.5h.1c1.2.6 1.5 1.9 1 3.6-.3.2 0 .7.3.5.9-.5 1.4-1.2 1.2-2.3-.2-.9-.8-1.1-1.2-1.8-.9-.4-1-1.2-.4-2.3.2-.2.4-.4.5-.6.2-.8.4-.5.4-1.3 0-1.1-.7-2-1.5-2.7-1.3-1.2-1.7-2.5-2.7-3.9-.6-.9-.4-.6-1-.8-1.6-.6-3.7-.5-5.4-.7-.3 0-.4.4-.2.6 1.6.7 3.7 1.6 4.5 3.3.9 2 .5 4.1-.2 6-.6 1.7-2.9 5.3-1.7 7.3.6.9 1.6 1 2.5.3.6-.5.8-1.2 1-1.9.4-1.8.3-3.1 1.2-4.9-.2 0-.4 0-.6-.1.5 2.1.7 5.7 3.5 5.8.4.1.4-.5 0-.5z"/><path class="st6" d="M15.9 142.2h22.1v22.1h-22.1z"/><path class="st8" d="M15.9 137.7v31.3M27 137.7v31.3M38.1 137.7v31.3M42.7 142.2h-31.4M42.7 164.4h-31.4"/><path class="st9" d="M19.9 181.2h19.7v19.7h-19.7z"/><path class="st10" d="M16.6 183.6h19.7v19.7h-19.7z"/><path class="st9" d="M14.4 186.3h19.7v19.7h-19.7z"/></svg>