<?xml version="1.0" encoding="utf-8"?>
<!-- Generator: Adobe Illustrator 19.1.0, SVG Export Plug-In . SVG Version: 6.00 Build 0)  -->
<!DOCTYPE svg PUBLIC "-//W3C//DTD SVG 1.1//EN" "http://www.w3.org/Graphics/SVG/1.1/DTD/svg11.dtd">
<svg version="1.1" id="Layer_1" xmlns="http://www.w3.org/2000/svg" xmlns:xlink="http://www.w3.org/1999/xlink" x="0px" y="0px"
	 width="225.9px" height="142.5px" viewBox="0 0 225.9 142.5" style="enable-background:new 0 0 225.9 142.5;" xml:space="preserve"
	>
<style type="text/css">
	.st0{fill:none;stroke:#FFCE06;stroke-width:2;stroke-miterlimit:10;}
	.st1{fill:#FFFFFF;}
	.st2{fill:#FFCE06;}
</style>
<g>
	<rect x="18.1" y="27.6" class="st0" width="189.4" height="87.3"/>
	<g>
		<path class="st1" d="M34.8,86.8V57.1h7.3c1,0,2,0.1,2.8,0.4c0.8,0.3,1.5,0.7,2,1.1c0.5,0.5,1,1.1,1.3,1.8c0.3,0.7,0.6,1.4,0.7,2.2
			c0.1,0.8,0.2,1.6,0.2,2.5c0,0.9-0.1,1.7-0.2,2.5c-0.1,0.8-0.3,1.5-0.7,2.3c-0.3,0.8-0.7,1.4-1.3,1.9c-0.5,0.5-1.2,0.9-2,1.3
			c-0.8,0.3-1.8,0.5-2.9,0.5h-4.6v13.2H34.8z M37.4,71.5l4.9,0c1.5,0,2.5-0.5,3.2-1.5c0.6-1,0.9-2.6,0.9-4.8c0-2-0.3-3.5-1-4.5
			c-0.7-1-1.7-1.4-3.1-1.4h-4.9V71.5z"/>
		<path class="st1" d="M52.1,86.8V57.1h2.6v13.4h9.1V57.1h2.6v29.7h-2.6V72.3h-9.1v14.4H52.1z"/>
		<path class="st1" d="M71,78.2V65.7c0-1,0.1-2,0.2-2.9c0.2-0.9,0.4-1.7,0.8-2.5c0.4-0.8,0.8-1.4,1.4-2c0.6-0.5,1.3-1,2.2-1.3
			c0.9-0.3,1.9-0.5,3-0.5c1.1,0,2.1,0.2,3,0.5c0.9,0.3,1.6,0.7,2.2,1.3c0.6,0.5,1,1.2,1.4,2c0.4,0.8,0.6,1.6,0.8,2.5
			c0.2,0.9,0.2,1.8,0.2,2.9v12.4c0,6.1-2.5,9.1-7.6,9.1C73.5,87.2,71,84.2,71,78.2z M83.5,78.7V65.1c0-4.2-1.7-6.4-5-6.4
			c-3.3,0-5,2.1-5,6.4v13.6c0,4.3,1.7,6.4,5,6.4C81.9,85.1,83.5,83,83.5,78.7z"/>
		<path class="st1" d="M92.7,86.8V59.2H87v-2.1h14.2v2.1h-5.8v27.6H92.7z"/>
		<path class="st1" d="M102.5,78.2V65.7c0-1,0.1-2,0.2-2.9c0.2-0.9,0.4-1.7,0.8-2.5c0.4-0.8,0.8-1.4,1.4-2c0.6-0.5,1.3-1,2.2-1.3
			c0.9-0.3,1.9-0.5,3-0.5c1.1,0,2.1,0.2,3,0.5c0.9,0.3,1.6,0.7,2.2,1.3c0.6,0.5,1,1.2,1.4,2c0.4,0.8,0.6,1.6,0.8,2.5
			c0.2,0.9,0.2,1.8,0.2,2.9v12.4c0,6.1-2.5,9.1-7.6,9.1C105.1,87.2,102.5,84.2,102.5,78.2z M115.1,78.7V65.1c0-4.2-1.7-6.4-5-6.4
			c-3.3,0-5,2.1-5,6.4v13.6c0,4.3,1.7,6.4,5,6.4C113.4,85.1,115.1,83,115.1,78.7z"/>
		<path class="st2" d="M121.5,86.8V55.7h7.5c2.7,0,4.7,0.8,5.9,2.3c1.2,1.5,1.8,3.7,1.8,6.5c0,1.4-0.1,2.6-0.4,3.7
			c-0.3,1-0.6,1.9-1.1,2.6c-0.5,0.7-1.1,1.2-1.9,1.6c-0.8,0.4-1.6,0.7-2.5,0.9c-0.9,0.2-1.9,0.3-3.1,0.3v13.3H121.5z M127.8,69
			c0.3,0,0.6,0,0.9-0.1c0.3,0,0.5-0.1,0.7-0.1c0.2-0.1,0.4-0.1,0.5-0.3c0.1-0.1,0.3-0.3,0.4-0.4c0.1-0.1,0.2-0.3,0.3-0.5
			c0.1-0.2,0.1-0.4,0.2-0.6c0-0.1,0.1-0.4,0.1-0.7c0-0.3,0-0.6,0-0.8s0-0.5,0-0.9c0-0.1,0-0.2,0-0.3c0-0.4,0-0.8,0-1
			c0-0.2,0-0.5-0.1-0.9c0-0.4-0.1-0.6-0.2-0.8c-0.1-0.2-0.2-0.4-0.3-0.6c-0.1-0.2-0.3-0.4-0.5-0.5c-0.2-0.1-0.5-0.2-0.8-0.3
			c-0.3-0.1-0.7-0.1-1.1-0.1V69z"/>
		<path class="st2" d="M139.1,86.8V55.7h6.3v26.7h6.2v4.3H139.1z"/>
		<path class="st2" d="M153.5,75.2V55.7h6.3V75c0,1.1,0,1.9,0,2.4c0,0.5,0,1.1,0.1,1.8c0,0.7,0.1,1.2,0.2,1.5
			c0.1,0.3,0.3,0.6,0.5,0.9c0.2,0.3,0.5,0.6,0.8,0.7c0.3,0.1,0.7,0.2,1.2,0.2c0.5,0,0.9-0.1,1.2-0.2c0.3-0.1,0.6-0.3,0.8-0.6
			c0.2-0.3,0.4-0.6,0.5-0.9c0.1-0.3,0.2-0.8,0.2-1.5c0-0.7,0.1-1.3,0.1-1.8c0-0.5,0-1.3,0-2.4c0,0,0-0.1,0-0.1V55.7h6.3v19.5
			c0,1,0,1.9-0.1,2.7c-0.1,0.8-0.2,1.6-0.3,2.5c-0.2,0.9-0.4,1.6-0.7,2.3c-0.3,0.7-0.6,1.3-1.1,1.9c-0.5,0.6-1,1.1-1.6,1.5
			c-0.6,0.4-1.4,0.7-2.3,0.9c-0.9,0.2-1.9,0.3-3,0.3s-2.1-0.1-3-0.3c-0.9-0.2-1.6-0.5-2.3-0.9c-0.6-0.4-1.2-0.9-1.6-1.5
			c-0.5-0.6-0.8-1.2-1.1-1.9c-0.3-0.7-0.5-1.4-0.7-2.3c-0.2-0.9-0.3-1.7-0.3-2.5C153.5,77.1,153.5,76.2,153.5,75.2z"/>
		<path class="st2" d="M174.1,77.9l6.4-1.2c0,0.6,0,1.2,0,1.7c0,0.5,0.1,1,0.2,1.6c0.1,0.6,0.2,1,0.4,1.4c0.2,0.4,0.4,0.7,0.7,0.9
			c0.3,0.2,0.7,0.4,1.1,0.4c1.2,0,1.9-0.8,1.9-2.4c0-2.2-1.2-4.3-3.7-6.5l-1.9-1.7c-0.6-0.5-1.1-0.9-1.5-1.3
			c-0.4-0.3-0.8-0.8-1.3-1.4c-0.5-0.6-0.9-1.2-1.2-1.7s-0.5-1.2-0.7-2c-0.2-0.8-0.3-1.6-0.3-2.5c0-2.5,0.8-4.5,2.4-6
			c1.6-1.5,3.7-2.2,6.4-2.2c2.2,0,4.1,0.8,5.6,2.3c1.5,1.6,2.3,3.5,2.3,5.7l0,0.2c0,0.1,0,0.3,0,0.5l-6.5,0.9c0-0.1,0-0.3,0-0.6
			c0-0.3,0-0.5,0-0.7c0-0.4,0-0.8-0.1-1.2s-0.2-0.8-0.3-1.1s-0.3-0.7-0.6-0.9c-0.3-0.2-0.6-0.3-1-0.3c-0.7,0-1.2,0.3-1.6,0.8
			c-0.3,0.5-0.5,1.2-0.5,1.9c0,0.6,0.1,1.2,0.3,1.8c0.2,0.6,0.5,1.1,0.9,1.6c0.4,0.5,0.8,0.9,1.1,1.2c0.3,0.3,0.8,0.7,1.4,1.2
			c0.6,0.5,1,0.8,1.2,1c0.9,0.8,1.6,1.5,2.2,2.2c0.6,0.7,1.2,1.5,1.7,2.3c0.5,0.9,0.9,1.8,1.2,2.8c0.3,1,0.4,2.1,0.4,3.2
			c0,2.2-0.8,4-2.3,5.3c-1.6,1.4-3.4,2.1-5.7,2.1c-1.4,0-2.7-0.3-3.8-0.8c-1.1-0.5-2-1.2-2.7-2.2c-0.7-0.9-1.2-1.9-1.6-3
			C174.3,80.3,174.1,79.1,174.1,77.9z"/>
	</g>
</g>
</svg>
