<svg xmlns="http://www.w3.org/2000/svg" width="225.9" height="142.5" viewBox="0 0 225.9 142.5"><style type="text/css">.st0{fill:none;stroke:#FFCE06;stroke-width:2;stroke-miterlimit:10;} .st1{fill:#FFFFFF;} .st2{fill:#FFCE06;}</style><path class="st0" d="M18.1 27.6h189.4v87.3h-189.4z"/><path class="st1" d="M34.8 86.8v-29.7h7.3c1 0 2 .1 2.8.4.8.3 1.5.7 2 1.1.5.5 1 1.1 1.3 1.8.3.7.6 1.4.7 2.2.1.8.2 1.6.2 2.5 0 .9-.1 1.7-.2 2.5s-.3 1.5-.7 2.3c-.3.8-.7 1.4-1.3 1.9-.5.5-1.2.9-2 1.3-.8.3-1.8.5-2.9.5h-4.6v13.2h-2.6zm2.6-15.3h4.9c1.5 0 2.5-.5 3.2-1.5.6-1 .9-2.6.9-4.8 0-2-.3-3.5-1-4.5s-1.7-1.4-3.1-1.4h-4.9v12.2zM52.1 86.8v-29.7h2.6v13.4h9.1v-13.4h2.6v29.7h-2.6v-14.5h-9.1v14.4h-2.6zM71 78.2v-12.5c0-1 .1-2 .2-2.9.2-.9.4-1.7.8-2.5s.8-1.4 1.4-2c.6-.5 1.3-1 2.2-1.3.9-.3 1.9-.5 3-.5s2.1.2 3 .5c.9.3 1.6.7 2.2 1.3.6.5 1 1.2 1.4 2 .4.8.6 1.6.8 2.5.2.9.2 1.8.2 2.9v12.4c0 6.1-2.5 9.1-7.6 9.1s-7.6-3-7.6-9zm12.5.5v-13.6c0-4.2-1.7-6.4-5-6.4s-5 2.1-5 6.4v13.6c0 4.3 1.7 6.4 5 6.4 3.4 0 5-2.1 5-6.4zM92.7 86.8v-27.6h-5.7v-2.1h14.2v2.1h-5.8v27.6h-2.7zM102.5 78.2v-12.5c0-1 .1-2 .2-2.9.2-.9.4-1.7.8-2.5s.8-1.4 1.4-2c.6-.5 1.3-1 2.2-1.3.9-.3 1.9-.5 3-.5s2.1.2 3 .5c.9.3 1.6.7 2.2 1.3.6.5 1 1.2 1.4 2 .4.8.6 1.6.8 2.5.2.9.2 1.8.2 2.9v12.4c0 6.1-2.5 9.1-7.6 9.1-5 0-7.6-3-7.6-9zm12.6.5v-13.6c0-4.2-1.7-6.4-5-6.4s-5 2.1-5 6.4v13.6c0 4.3 1.7 6.4 5 6.4s5-2.1 5-6.4z"/><path class="st2" d="M121.5 86.8v-31.1h7.5c2.7 0 4.7.8 5.9 2.3 1.2 1.5 1.8 3.7 1.8 6.5 0 1.4-.1 2.6-.4 3.7-.3 1-.6 1.9-1.1 2.6-.5.7-1.1 1.2-1.9 1.6-.8.4-1.6.7-2.5.9-.9.2-1.9.3-3.1.3v13.3h-6.2zm6.3-17.8c.3 0 .6 0 .9-.1.3 0 .5-.1.7-.1.2-.1.4-.1.5-.3l.4-.4c.1-.1.2-.3.3-.5l.2-.6c0-.1.1-.4.1-.7v-3c0-.2 0-.5-.1-.9 0-.4-.1-.6-.2-.8l-.3-.6c-.1-.2-.3-.4-.5-.5-.2-.1-.5-.2-.8-.3-.3-.1-.7-.1-1.1-.1v8.9zM139.1 86.8v-31.1h6.3v26.7h6.2v4.3h-12.5zM153.5 75.2v-19.5h6.3v21.7c0 .5 0 1.1.1 1.8 0 .7.1 1.2.2 1.5.1.3.3.6.5.9.2.3.5.6.8.7.3.1.7.2 1.2.2s.9-.1 1.2-.2c.3-.1.6-.3.8-.6.2-.3.4-.6.5-.9.1-.3.2-.8.2-1.5s.1-1.3.1-1.8v-21.8h6.3v19.5c0 1 0 1.9-.1 2.7-.1.8-.2 1.6-.3 2.5-.2.9-.4 1.6-.7 2.3-.3.7-.6 1.3-1.1 1.9-.5.6-1 1.1-1.6 1.5-.6.4-1.4.7-2.3.9-.9.2-1.9.3-3 .3s-2.1-.1-3-.3c-.9-.2-1.6-.5-2.3-.9-.6-.4-1.2-.9-1.6-1.5-.5-.6-.8-1.2-1.1-1.9-.3-.7-.5-1.4-.7-2.3-.2-.9-.3-1.7-.3-2.5-.1-.8-.1-1.7-.1-2.7zM174.1 77.9l6.4-1.2v1.7c0 .5.1 1 .2 1.6.1.6.2 1 .4 1.4.2.4.4.7.7.9.3.2.7.4 1.1.4 1.2 0 1.9-.8 1.9-2.4 0-2.2-1.2-4.3-3.7-6.5l-1.9-1.7c-.6-.5-1.1-.9-1.5-1.3-.4-.3-.8-.8-1.3-1.4-.5-.6-.9-1.2-1.2-1.7s-.5-1.2-.7-2c-.2-.8-.3-1.6-.3-2.5 0-2.5.8-4.5 2.4-6 1.6-1.5 3.7-2.2 6.4-2.2 2.2 0 4.1.8 5.6 2.3 1.5 1.6 2.3 3.5 2.3 5.7v.7l-6.5.9v-1.2999999999999998c0-.4 0-.8-.1-1.2s-.2-.8-.3-1.1-.3-.7-.6-.9c-.3-.2-.6-.3-1-.3-.7 0-1.2.3-1.6.8-.3.5-.5 1.2-.5 1.9 0 .6.1 1.2.3 1.8.2.6.5 1.1.9 1.6s.8.9 1.1 1.2c.3.3.8.7 1.4 1.2.6.5 1 .8 1.2 1 .9.8 1.6 1.5 2.2 2.2.6.7 1.2 1.5 1.7 2.3.5.9.9 1.8 1.2 2.8.3 1 .4 2.1.4 3.2 0 2.2-.8 4-2.3 5.3-1.6 1.4-3.4 2.1-5.7 2.1-1.4 0-2.7-.3-3.8-.8-1.1-.5-2-1.2-2.7-2.2-.7-.9-1.2-1.9-1.6-3-.3-.9-.5-2.1-.5-3.3z"/></svg>