<?xml version="1.0" encoding="utf-8"?>
<!-- Generator: Adobe Illustrator 19.1.0, SVG Export Plug-In . SVG Version: 6.00 Build 0)  -->
<!DOCTYPE svg PUBLIC "-//W3C//DTD SVG 1.1//EN" "http://www.w3.org/Graphics/SVG/1.1/DTD/svg11.dtd">
<svg version="1.1" id="Layer_1" xmlns="http://www.w3.org/2000/svg" xmlns:xlink="http://www.w3.org/1999/xlink" x="0px" y="0px"
	 width="54px" height="210px" viewBox="0 0 54 210" style="enable-background:new 0 0 54 210;" xml:space="preserve">
<style type="text/css">
	.st0{fill:#FFFFFF;stroke:#231F20;stroke-width:1.2075;stroke-miterlimit:10;}
	.st1{fill:#231F20;}
	.st2{fill:#FFFFFF;stroke:#231F20;stroke-width:1.2075;stroke-linejoin:bevel;stroke-miterlimit:10;}
	.st3{fill:#231F20;stroke:#231F20;stroke-width:1.2075;stroke-linejoin:bevel;stroke-miterlimit:10;}
	.st4{fill:#FFFFFF;}
	.st5{fill:none;stroke:#231F20;stroke-width:1.2075;stroke-linejoin:bevel;stroke-miterlimit:10;}
</style>
<g>
	<path class="st0" d="M42.5,101c0,8.6-6.9,15.5-15.5,15.5c-8.6,0-15.5-6.9-15.5-15.5c0-8.6,6.9-15.5,15.5-15.5
		C35.6,85.5,42.5,92.5,42.5,101z"/>
	<path class="st1" d="M42.5,101c0,8.6-6.9,15.5-15.5,15.5v-31C35.6,85.5,42.5,92.5,42.5,101z"/>
</g>
<g>
	<polygon class="st2" points="5.3,57.9 5.3,68.6 25.3,68.6 	"/>
	<polygon class="st2" points="48.7,57.9 48.7,68.6 28.7,68.6 	"/>
	<rect x="22.2" y="53.3" class="st3" width="9.2" height="9.2"/>
</g>
<g>
	<path class="st4" d="M25.7,174.9v2.6c-2.1,0.2-4,1-5.6,2.2l-1.8-1.8C20.4,176.2,22.9,175.2,25.7,174.9z"/>
	<path class="st4" d="M18.2,181.4c-1.4,1.6-2.4,3.5-2.8,5.7h-2.6c0.4-2.9,1.7-5.5,3.6-7.5L18.2,181.4z"/>
	<path class="st4" d="M17.5,196.1l-1.8,1.8c-1.8-2.3-2.9-5.2-3-8.3h2.6C15.3,192,16.1,194.2,17.5,196.1z"/>
	<path class="st4" d="M25.7,200.9v2.6c-3.2-0.3-6.1-1.6-8.4-3.7l1.8-1.8C21,199.5,23.2,200.6,25.7,200.9z"/>
	<path class="st4" d="M36.6,199.8c-2.3,2-5.2,3.4-8.4,3.7v-2.6c2.5-0.3,4.8-1.3,6.5-2.9L36.6,199.8z"/>
	<path class="st4" d="M35.7,177.8l-1.8,1.8c-1.6-1.2-3.5-1.9-5.6-2.2v-2.6C31.1,175.2,33.6,176.2,35.7,177.8z"/>
	<path class="st4" d="M41.2,187.1h-2.6c-0.4-2.2-1.4-4.1-2.8-5.7l1.8-1.8C39.5,181.6,40.7,184.2,41.2,187.1z"/>
	<path class="st4" d="M41.3,189.6c-0.1,3.1-1.2,6-3,8.3l-1.8-1.8c1.3-1.8,2.1-4,2.2-6.4H41.3z"/>
	<path class="st1" d="M16.4,179.5l-1.8-1.8c-2.3,2.5-3.9,5.7-4.3,9.3h5.2c0.4-2.2,1.4-4.1,2.8-5.7L16.4,179.5z M19.2,198l-1.8,1.8
		l-1.8,1.8c2.7,2.5,6.3,4.1,10.2,4.4v-5.1C23.2,200.6,21,199.5,19.2,198z M39.4,177.7l-3.6,3.6c1.4,1.6,2.4,3.5,2.8,5.7h5.2
		C43.3,183.5,41.7,180.3,39.4,177.7z M28.3,172.3v5.1c2.1,0.2,4,1,5.6,2.2l1.8-1.8l1.8-1.8C35,173.9,31.8,172.6,28.3,172.3z
		 M38.8,189.6c-0.1,2.4-0.9,4.6-2.2,6.4l1.8,1.8l1.8,1.8c2.2-2.8,3.6-6.3,3.7-10.1H38.8z M36.6,199.8l-1.8-1.8
		c-1.8,1.6-4,2.6-6.5,2.9v5.1c3.9-0.3,7.4-1.9,10.2-4.4L36.6,199.8z M15.2,189.6h-5.1c0.1,3.8,1.5,7.3,3.7,10.1l3.6-3.6
		C16.1,194.2,15.3,192,15.2,189.6z M16.5,176l1.8,1.8l1.8,1.8c1.6-1.2,3.5-1.9,5.6-2.2v-5.1C22.2,172.6,19,173.9,16.5,176z"/>
</g>
<g>
	<rect x="12.4" y="31.1" class="st3" width="29.3" height="6.6"/>
	<rect x="15.1" y="23.4" class="st2" width="23.6" height="4.8"/>
	<path class="st0" d="M34,11.1c0,2.8-1.6,5.2-4,6.4v5.9h-6v-5.8c-2.5-1.1-4.2-3.6-4.2-6.5C19.8,7.2,23,4,26.9,4S34,7.2,34,11.1z"/>
</g>
<g>
	<line class="st5" x1="20.5" y1="129.3" x2="20.5" y2="161.6"/>
	<line class="st5" x1="27.3" y1="129.3" x2="27.3" y2="161.6"/>
	<line class="st5" x1="33.5" y1="129.3" x2="33.5" y2="161.6"/>
	<circle class="st2" cx="27.3" cy="131.3" r="2.8"/>
	<circle class="st2" cx="20.5" cy="145.5" r="2.8"/>
	<circle class="st2" cx="33.5" cy="158.7" r="2.8"/>
</g>
</svg>
