<svg xmlns="http://www.w3.org/2000/svg" width="54" height="210" viewBox="0 0 54 210"><style type="text/css">.st0{fill:#FFFFFF;stroke:#231F20;stroke-width:1.2075;stroke-miterlimit:10;} .st1{fill:#231F20;} .st2{fill:#FFFFFF;stroke:#231F20;stroke-width:1.2075;stroke-linejoin:bevel;stroke-miterlimit:10;} .st3{fill:#231F20;stroke:#231F20;stroke-width:1.2075;stroke-linejoin:bevel;stroke-miterlimit:10;} .st4{fill:#FFFFFF;} .st5{fill:none;stroke:#231F20;stroke-width:1.2075;stroke-linejoin:bevel;stroke-miterlimit:10;}</style><path class="st0" d="M42.5 101c0 8.6-6.9 15.5-15.5 15.5s-15.5-6.9-15.5-15.5 6.9-15.5 15.5-15.5 15.5 7 15.5 15.5z"/><path class="st1" d="M42.5 101c0 8.6-6.9 15.5-15.5 15.5v-31c8.6 0 15.5 7 15.5 15.5z"/><path class="st2" d="M5.3 57.9v10.7h20zM48.7 57.9v10.7h-20z"/><path class="st3" d="M22.2 53.3h9.2v9.2h-9.2z"/><path class="st4" d="M25.7 174.9v2.6c-2.1.2-4 1-5.6 2.2l-1.8-1.8c2.1-1.7 4.6-2.7 7.4-3zM18.2 181.4c-1.4 1.6-2.4 3.5-2.8 5.7h-2.6c.4-2.9 1.7-5.5 3.6-7.5l1.8 1.8zM17.5 196.1l-1.8 1.8c-1.8-2.3-2.9-5.2-3-8.3h2.6c0 2.4.8 4.6 2.2 6.5zM25.7 200.9v2.6c-3.2-.3-6.1-1.6-8.4-3.7l1.8-1.8c1.9 1.5 4.1 2.6 6.6 2.9zM36.6 199.8c-2.3 2-5.2 3.4-8.4 3.7v-2.6c2.5-.3 4.8-1.3 6.5-2.9l1.9 1.8zM35.7 177.8l-1.8 1.8c-1.6-1.2-3.5-1.9-5.6-2.2v-2.6c2.8.4 5.3 1.4 7.4 3zM41.2 187.1h-2.6c-.4-2.2-1.4-4.1-2.8-5.7l1.8-1.8c1.9 2 3.1 4.6 3.6 7.5zM41.3 189.6c-.1 3.1-1.2 6-3 8.3l-1.8-1.8c1.3-1.8 2.1-4 2.2-6.4h2.6z"/><path class="st1" d="M16.4 179.5l-1.8-1.8c-2.3 2.5-3.9 5.7-4.3 9.3h5.2c.4-2.2 1.4-4.1 2.8-5.7l-1.9-1.8zm2.8 18.5l-1.8 1.8-1.8 1.8c2.7 2.5 6.3 4.1 10.2 4.4v-5.1c-2.6-.3-4.8-1.4-6.6-2.9zm20.2-20.3l-3.6 3.6c1.4 1.6 2.4 3.5 2.8 5.7h5.2c-.5-3.5-2.1-6.7-4.4-9.3zm-11.1-5.4v5.1c2.1.2 4 1 5.6 2.2l1.8-1.8 1.8-1.8c-2.5-2.1-5.7-3.4-9.2-3.7zm10.5 17.3c-.1 2.4-.9 4.6-2.2 6.4l1.8 1.8 1.8 1.8c2.2-2.8 3.6-6.3 3.7-10.1h-5.1zm-2.2 10.2l-1.8-1.8c-1.8 1.6-4 2.6-6.5 2.9v5.1c3.9-.3 7.4-1.9 10.2-4.4l-1.9-1.8zm-21.4-10.2h-5.1c.1 3.8 1.5 7.3 3.7 10.1l3.6-3.6c-1.3-1.9-2.1-4.1-2.2-6.5zm1.3-13.6l1.8 1.8 1.8 1.8c1.6-1.2 3.5-1.9 5.6-2.2v-5.1c-3.5.3-6.7 1.6-9.2 3.7z"/><path class="st3" d="M12.4 31.1h29.3v6.6h-29.3z"/><path class="st2" d="M15.1 23.4h23.6v4.8h-23.6z"/><path class="st0" d="M34 11.1c0 2.8-1.6 5.2-4 6.4v5.9h-6v-5.8c-2.5-1.1-4.2-3.6-4.2-6.5 0-3.9 3.2-7.1 7.1-7.1s7.1 3.2 7.1 7.1z"/><path class="st5" d="M20.5 129.3v32.3M27.3 129.3v32.3M33.5 129.3v32.3"/><circle class="st2" cx="27.3" cy="131.3" r="2.8"/><circle class="st2" cx="20.5" cy="145.5" r="2.8"/><circle class="st2" cx="33.5" cy="158.7" r="2.8"/></svg>